<svg xmlns="http://www.w3.org/2000/svg" viewBox="0 0 540.2 393.3"><path d="M271.1 44.6c5 0 7-2 10-5 2 2 5 3 8 3s7-2 9-5c1-2 1-5 1-8 0-9-1-22-3-28l-4 8c1 6 2 16 2 20s-3 6-6 6c-2 0-4-1-5-4s-1-21-2-29c-2 2-3 4-4 6 0 3 1 19 2 25-2 2-4 3-7 3s-4-1-5-5c-2-9-2-24-2-28-1 1-4 5-5 7 0 7 0 22 3 28 2 4 5 6 8 6zm-6 292c-6-8-11-16-15-33-7-30-7-47-8-70 18-1 51-1 138-2v4c-14 5-46 18-63 28-19 11-51 35-51 64 0 3 0 7-1 9zm70 57c1-19 1-27 1-38h-3c-13 0-40-9-56-25 13-25 43-37 63-46 42-19 122-46 165-49 10-1 13-1 18-2 5-11 12-25 17-37-27 1-82 3-124 3-43 1-91 0-139 0v-2c17-11 41-27 64-38 12-6 36-16 60-25 2 3 5 10 6 13s3 3 4 1c1-3 2-5 2-9 0-3-1-6-2-9 20-8 35-13 49-18 3-11 6-20 9-34-15-13-52-32-74-32-16 0-23 12-23 28 0 14 8 29 17 39 7-3 11-5 16-7-2-3-13-19-16-24 1-1 5-2 8-2 7 0 22 3 30 12-8 4-15 7-22 10 1 1 2 3 3 5-5 2-15 7-19 9-3-3-4-4-5-6-20 7-44 19-63 29-27 14-66 39-78 58-2 3-2 5-3 8h-2c-8-92-38-159-69-206-4 13-7 24-12 45 16 34 53 116 59 175-28 56-114 108-162 108-24 0-41-8-41-33 0-34 29-92 39-112 3-6 0-5-3-2-11 11-49 89-49 127s19 58 49 58c58 0 142-59 175-116 7 91 12 144 111 144z"/></svg>