<?xml version="1.0" encoding="UTF-8"?>
<svg xmlns="http://www.w3.org/2000/svg" xmlns:xlink="http://www.w3.org/1999/xlink" width="1923" height="3350" viewBox="0 0 1923 3350">
<path fill-rule="nonzero" fill="rgb(0%, 0%, 0%)" fill-opacity="1" d="M 961.222656 0 L 950.308594 13.160156 C 950.308594 13.160156 921.253906 48.410156 842.304688 109 C 763.359375 169.570312 635.21875 254.628906 439.199219 351.628906 C 353.632812 393.96875 297.46875 436.808594 263.25 493.621094 C 229.03125 550.421875 217.691406 619.488281 217.691406 712.140625 C 217.859375 801.648438 236.265625 890.171875 271.40625 973.089844 L 166.160156 973.089844 C 164.222656 973.089844 162.515625 973.179688 160.488281 973.519531 C 159.476562 973.691406 158.460938 973.839844 156.554688 974.621094 C 155.597656 975.011719 154.375 975.480469 152.496094 977.058594 C 150.613281 978.648438 147.367188 982.460938 147.367188 988.058594 L 147.367188 1089.441406 L 21.308594 1089.441406 C 17.945312 1089.441406 14.878906 1089.789062 11.398438 1091.058594 C 9.660156 1091.699219 7.75 1092.5 5.453125 1094.488281 C 3.15625 1096.480469 0 1100.640625 0 1106.210938 L 0 3332.519531 C 0 3338.089844 3.15625 3342.261719 5.453125 3344.25 C 7.75 3346.242188 9.660156 3347.042969 11.398438 3347.679688 C 14.878906 3348.949219 17.945312 3349.300781 21.308594 3349.300781 L 1901.128906 3349.300781 C 1904.5 3349.300781 1907.558594 3348.949219 1911.039062 3347.679688 C 1912.789062 3347.042969 1914.691406 3346.242188 1916.988281 3344.25 C 1919.289062 3342.261719 1922.441406 3338.089844 1922.441406 3332.519531 L 1922.441406 1106.210938 C 1922.441406 1100.640625 1919.289062 1096.480469 1916.988281 1094.488281 C 1914.691406 1092.5 1912.789062 1091.699219 1911.039062 1091.058594 C 1907.558594 1089.789062 1904.5 1089.441406 1901.128906 1089.441406 L 1775.070312 1089.441406 L 1775.070312 988.058594 C 1775.070312 982.460938 1771.828125 978.648438 1769.949219 977.058594 C 1768.070312 975.480469 1766.839844 975.011719 1765.890625 974.621094 C 1763.980469 973.839844 1762.96875 973.699219 1761.949219 973.519531 C 1759.929688 973.179688 1758.21875 973.089844 1756.28125 973.089844 L 1651.03125 973.089844 C 1686.171875 890.171875 1704.589844 801.648438 1704.75 712.140625 C 1704.75 619.488281 1693.410156 550.421875 1659.191406 493.621094 C 1624.96875 436.808594 1568.808594 393.96875 1483.238281 351.628906 C 1287.21875 254.628906 1159.089844 169.570312 1080.140625 109 C 1001.191406 48.410156 972.132812 13.160156 972.132812 13.160156 Z M 961.222656 42.519531 C 972.390625 54.710938 999.191406 82.609375 1062.878906 131.480469 C 1143.410156 193.28125 1273.140625 279.289062 1470.671875 377.03125 C 1553.851562 418.199219 1604.5 457.769531 1634.898438 508.238281 C 1665.308594 558.710938 1676.398438 621.800781 1676.410156 712.128906 C 1676.230469 804.769531 1655.898438 896.390625 1616.640625 981.339844 L 1607.351562 1001.460938 L 1746.730469 1001.460938 L 1746.730469 1117.808594 L 1894.101562 1117.808594 L 1894.101562 3320.976562 L 28.347656 3320.976562 L 28.347656 1117.808594 L 175.714844 1117.808594 L 175.714844 1001.460938 L 315.09375 1001.460938 L 305.792969 981.339844 C 266.539062 896.398438 246.214844 804.78125 246.039062 712.140625 C 246.039062 621.808594 257.128906 558.730469 287.535156 508.25 C 317.941406 457.78125 368.585938 418.210938 451.773438 377.050781 C 649.292969 279.308594 779.027344 193.289062 859.5625 131.5 C 923.25 82.621094 950.054688 54.71875 961.222656 42.53125 Z M 961.222656 42.519531 "/>
</svg>
